<svg width="70" height="70" viewBox="0 0 70 70" fill="none" xmlns="http://www.w3.org/2000/svg">
<rect width="70" height="70" rx="12" fill="#EEEEEE"/>
<path d="M31.6999 24C30.3183 24 29.3459 24.9823 28.8575 26.2H27.6673C26.696 26.2043 25.7657 26.5921 25.0788 27.279C24.392 27.9658 24.0042 28.8961 23.9999 29.8674V42.3326C24.0042 43.3039 24.392 44.2342 25.0788 44.921C25.7657 45.6079 26.696 45.9957 27.6673 46H42.3325C43.3038 45.9957 44.2341 45.6079 44.9209 44.921C45.6078 44.2342 45.9955 43.3039 45.9999 42.3326V29.8674C45.9955 28.8961 45.6078 27.9658 44.9209 27.279C44.2341 26.5921 43.3038 26.2043 42.3325 26.2H41.1423C40.655 24.9823 39.6815 24 38.2999 24H31.6999ZM31.6999 26.2H38.2999C38.928 26.2 39.3999 26.6719 39.3999 27.3C39.3999 27.5917 39.5158 27.8715 39.7221 28.0778C39.9284 28.2841 40.2081 28.4 40.4999 28.4H42.3325C42.5262 28.3964 42.7186 28.4319 42.8982 28.5044C43.0779 28.5769 43.2411 28.6848 43.3781 28.8218C43.515 28.9588 43.623 29.122 43.6955 29.3016C43.768 29.4813 43.8035 29.6737 43.7999 29.8674V42.3326C43.8035 42.5263 43.768 42.7187 43.6955 42.8984C43.623 43.078 43.515 43.2412 43.3781 43.3782C43.2411 43.5152 43.0779 43.6231 42.8982 43.6956C42.7186 43.7681 42.5262 43.8036 42.3325 43.8H27.6673C27.4736 43.8036 27.2812 43.7681 27.1015 43.6956C26.9219 43.6231 26.7587 43.5152 26.6217 43.3782C26.4847 43.2412 26.3768 43.078 26.3043 42.8984C26.2318 42.7187 26.1963 42.5263 26.1999 42.3326V29.8674C26.1963 29.6737 26.2318 29.4813 26.3043 29.3016C26.3768 29.122 26.4847 28.9588 26.6217 28.8218C26.7587 28.6848 26.9219 28.5769 27.1015 28.5044C27.2812 28.4319 27.4736 28.3964 27.6673 28.4H29.4999C29.7916 28.4 30.0714 28.2841 30.2777 28.0778C30.484 27.8715 30.5999 27.5917 30.5999 27.3C30.5999 26.6719 31.0718 26.2 31.6999 26.2ZM35.0043 30.6044C31.9793 30.6044 29.4977 33.0772 29.4977 36.1022C29.4977 39.1272 31.9793 41.5978 35.0043 41.5978C36.4606 41.594 37.8563 41.0138 38.8861 39.984C39.9159 38.9542 40.4961 37.5586 40.4999 36.1022C40.4999 33.0772 38.0282 30.6044 35.0043 30.6044ZM35.0043 32.7956C35.4384 32.7943 35.8684 32.879 36.2696 33.0448C36.6707 33.2107 37.035 33.4544 37.3415 33.7618C37.6479 34.0693 37.8904 34.4344 38.0549 34.8361C38.2194 35.2378 38.3026 35.6681 38.2999 36.1022C38.3025 36.5357 38.2191 36.9654 38.0544 37.3665C37.8897 37.7675 37.647 38.1319 37.3405 38.4384C37.0339 38.745 36.6696 38.9876 36.2686 39.1523C35.8675 39.317 35.4378 39.4004 35.0043 39.3978C34.5702 39.4006 34.1399 39.3173 33.7382 39.1528C33.3365 38.9883 32.9713 38.7458 32.6639 38.4394C32.3564 38.1329 32.1128 37.7686 31.9469 37.3675C31.7811 36.9663 31.6964 36.5363 31.6977 36.1022C31.6961 35.6675 31.7805 35.2368 31.9461 34.8349C32.1117 34.433 32.3552 34.0679 32.6626 33.7605C32.97 33.4531 33.3351 33.2096 33.737 33.044C34.1389 32.8784 34.5696 32.794 35.0043 32.7956Z" fill="#616161"/>
</svg>
